<svg width="172" height="30" viewBox="0 0 172 30" fill="none" xmlns="http://www.w3.org/2000/svg">
<rect x="1" y="1" width="7.43485" height="28" rx="3.71742" fill="white"/>
<rect x="14.3828" y="7.36401" width="6.36364" height="30.4829" rx="3.18182" transform="rotate(-90 14.3828 7.36401)" fill="url(#paint0_linear_18_95)"/>
<rect x="14.3828" y="18.1814" width="6.36364" height="30.4829" rx="3.18182" transform="rotate(-90 14.3828 18.1814)" fill="url(#paint1_linear_18_95)"/>
<rect x="14.3828" y="28.9998" width="6.36364" height="30.4829" rx="3.18182" transform="rotate(-90 14.3828 28.9998)" fill="url(#paint2_linear_18_95)"/>
<rect x="14.3828" y="28.9998" width="6.36364" height="22.3045" rx="3.18182" transform="rotate(-90 14.3828 28.9998)" fill="white"/>
<rect x="14.3828" y="18.1814" width="6.36364" height="16.3567" rx="3.18182" transform="rotate(-90 14.3828 18.1814)" fill="white"/>
<rect x="14.3828" y="7.36401" width="6.36364" height="22.3045" rx="3.18182" transform="rotate(-90 14.3828 7.36401)" fill="white"/>
<path d="M163.788 8.10498H164.625L170.807 21.8941H168.055L167.018 19.5303H161.395L160.358 21.8941H157.606L163.788 8.10498ZM166.021 17.1664L164.206 12.9903L162.392 17.1664H166.021Z" fill="white"/>
<path d="M144.909 8.10498H149.316C150.698 8.10498 151.822 8.45956 152.686 9.16871C153.563 9.87787 154.002 10.8497 154.002 12.0841C154.002 12.9771 153.769 13.7388 153.304 14.3692C152.839 14.9996 152.194 15.4592 151.37 15.7481L155.099 21.8941H151.968L148.418 16.0633H147.74V21.8941H144.909V8.10498ZM149.076 13.66C150.472 13.66 151.17 13.1347 151.17 12.0841C151.17 11.0335 150.472 10.5082 149.076 10.5082H147.74V13.66H149.076Z" fill="white"/>
<path d="M132.27 8.10498H141.144V10.4688H135.102V13.6206H140.924V15.9845H135.102V19.5303H141.224V21.8941H132.27V8.10498Z" fill="white"/>
<path d="M123.076 9.60209H119.407V8.10498H128.54V9.60209H124.871V21.8941H123.076V9.60209Z" fill="white"/>
<path d="M112.28 22.1703C110.711 22.1703 109.382 21.645 108.292 20.5944L108.411 18.5457H108.611C109.129 19.1892 109.674 19.708 110.246 20.1019C110.831 20.4828 111.509 20.6732 112.28 20.6732C113.104 20.6732 113.749 20.4565 114.214 20.0231C114.693 19.5766 114.932 18.9922 114.932 18.2699C114.932 17.5871 114.679 17.0158 114.174 16.5561C113.682 16.0834 112.944 15.6369 111.961 15.2166C110.897 14.7701 110.046 14.2054 109.408 13.5225C108.783 12.8396 108.471 12.0648 108.471 11.1981C108.471 10.5283 108.65 9.93736 109.009 9.42519C109.368 8.91302 109.847 8.51905 110.445 8.24326C111.057 7.96748 111.721 7.82959 112.439 7.82959C113.104 7.82959 113.716 7.93465 114.274 8.14477C114.832 8.34176 115.304 8.60441 115.69 8.93272L115.769 10.8238H115.51C115.058 10.2985 114.566 9.90453 114.035 9.64188C113.503 9.37923 112.951 9.2479 112.379 9.2479C111.701 9.2479 111.143 9.43176 110.704 9.79947C110.279 10.154 110.066 10.6006 110.066 11.139C110.066 11.7168 110.319 12.229 110.824 12.6755C111.343 13.122 112.087 13.5488 113.057 13.9559C114.241 14.4549 115.145 15.0393 115.769 15.7091C116.408 16.3657 116.727 17.1405 116.727 18.0336C116.727 18.8084 116.534 19.511 116.148 20.1413C115.776 20.7717 115.251 21.2707 114.573 21.6384C113.895 21.993 113.131 22.1703 112.28 22.1703Z" fill="white"/>
<path d="M96.6353 8.10498H104.612V9.60209H98.43V14.054H104.392V15.5511H98.43V20.397H104.691V21.8941H96.6353V8.10498Z" fill="white"/>
<path d="M80.2114 8.10498H82.0061L86.7322 18.9196L91.4583 8.10498H93.253L87.1111 21.8941H86.3533L80.2114 8.10498Z" fill="white"/>
<path d="M66.1567 8.10498H66.8347L75.0306 17.915V8.10498H76.8253V21.8941H76.1473L67.9514 12.0447V21.8941H66.1567V8.10498Z" fill="white"/>
<path d="M59.8657 8.10498H61.6604V21.8941H59.8657V8.10498Z" fill="white"/>
<defs>
<linearGradient id="paint0_linear_18_95" x1="17.5646" y1="7.36401" x2="17.5646" y2="37.8469" gradientUnits="userSpaceOnUse">
<stop offset="0.357066" stop-color="#115E3B"/>
<stop offset="0.575008" stop-color="#0F6E3C"/>
<stop offset="0.795244" stop-color="#0B943D"/>
<stop offset="1" stop-color="#0AA63E"/>
</linearGradient>
<linearGradient id="paint1_linear_18_95" x1="17.5646" y1="18.1814" x2="17.5646" y2="48.6643" gradientUnits="userSpaceOnUse">
<stop offset="0.357066" stop-color="#115E3B"/>
<stop offset="0.575008" stop-color="#0F6E3C"/>
<stop offset="0.822917" stop-color="#0B943D"/>
<stop offset="1" stop-color="#0AA63E"/>
</linearGradient>
<linearGradient id="paint2_linear_18_95" x1="17.5646" y1="28.9998" x2="17.5646" y2="59.4826" gradientUnits="userSpaceOnUse">
<stop offset="0.357066" stop-color="#115E3B"/>
<stop offset="0.575008" stop-color="#0F6E3C"/>
<stop offset="0.822917" stop-color="#0B943D"/>
<stop offset="1" stop-color="#0AA63E"/>
</linearGradient>
</defs>
</svg>
