<svg width="44" height="28" viewBox="0 0 44 28" fill="none" xmlns="http://www.w3.org/2000/svg">
<rect width="7.43485" height="28" rx="3.71742" fill="white"/>
<rect x="13.3828" y="6.36401" width="6.36364" height="30.4829" rx="3.18182" transform="rotate(-90 13.3828 6.36401)" fill="url(#paint0_linear_18_96)"/>
<rect x="13.3828" y="17.1814" width="6.36364" height="30.4829" rx="3.18182" transform="rotate(-90 13.3828 17.1814)" fill="url(#paint1_linear_18_96)"/>
<rect x="13.3828" y="27.9998" width="6.36364" height="30.4829" rx="3.18182" transform="rotate(-90 13.3828 27.9998)" fill="url(#paint2_linear_18_96)"/>
<rect x="13.3828" y="27.9998" width="6.36364" height="22.3045" rx="3.18182" transform="rotate(-90 13.3828 27.9998)" fill="white"/>
<rect x="13.3828" y="17.1814" width="6.36364" height="16.3567" rx="3.18182" transform="rotate(-90 13.3828 17.1814)" fill="white"/>
<rect x="13.3828" y="6.36401" width="6.36364" height="22.3045" rx="3.18182" transform="rotate(-90 13.3828 6.36401)" fill="white"/>
<defs>
<linearGradient id="paint0_linear_18_96" x1="16.5646" y1="6.36401" x2="16.5646" y2="36.8469" gradientUnits="userSpaceOnUse">
<stop offset="0.357066" stop-color="#115E3B"/>
<stop offset="0.575008" stop-color="#0F6E3C"/>
<stop offset="0.795244" stop-color="#0B943D"/>
<stop offset="1" stop-color="#0AA63E"/>
</linearGradient>
<linearGradient id="paint1_linear_18_96" x1="16.5646" y1="17.1814" x2="16.5646" y2="47.6643" gradientUnits="userSpaceOnUse">
<stop offset="0.357066" stop-color="#115E3B"/>
<stop offset="0.575008" stop-color="#0F6E3C"/>
<stop offset="0.822917" stop-color="#0B943D"/>
<stop offset="1" stop-color="#0AA63E"/>
</linearGradient>
<linearGradient id="paint2_linear_18_96" x1="16.5646" y1="27.9998" x2="16.5646" y2="58.4826" gradientUnits="userSpaceOnUse">
<stop offset="0.357066" stop-color="#115E3B"/>
<stop offset="0.575008" stop-color="#0F6E3C"/>
<stop offset="0.822917" stop-color="#0B943D"/>
<stop offset="1" stop-color="#0AA63E"/>
</linearGradient>
</defs>
</svg>
