<svg width="40" height="40" viewBox="0 0 40 40" fill="none" xmlns="http://www.w3.org/2000/svg">
<path fill-rule="evenodd" clip-rule="evenodd" d="M24 18C24 21.3137 21.3137 24 18 24C14.6863 24 12 21.3137 12 18C12 14.6863 14.6863 12 18 12C21.3137 12 24 14.6863 24 18ZM23.1348 24.1348C21.7454 25.2991 19.9545 26 18 26C13.5817 26 10 22.4183 10 18C10 13.5817 13.5817 10 18 10C22.4183 10 26 13.5817 26 18C26 19.7425 25.4429 21.3548 24.4971 22.6687L29.4142 27.5858L28 29L23.1348 24.1348Z" fill="white"/>
</svg>
